<svg id="svg" version="1.1" xmlns="http://www.w3.org/2000/svg" xmlns:xlink="http://www.w3.org/1999/xlink" width="400" height="400" viewBox="0, 0, 400,400"><g id="svgg"><path id="path0" d="M233.500 0.120 C 233.060 0.161,231.395 0.290,229.800 0.405 C 172.494 4.556,120.933 41.011,97.611 93.867 C 96.364 96.693,96.316 96.598,98.526 95.683 C 114.217 89.180,137.586 84.200,152.408 84.200 C 152.809 84.200,153.271 83.793,154.509 82.350 C 195.632 34.398,268.415 28.663,316.742 69.566 C 366.212 111.437,371.720 185.145,329.045 234.219 C 327.121 236.431,319.614 243.853,317.572 245.561 L 315.844 247.006 315.708 249.653 C 314.773 267.862,310.737 286.171,304.216 301.782 C 303.439 303.641,303.317 303.603,306.124 302.382 C 373.346 273.152,411.499 199.288,396.976 126.500 C 383.943 61.182,329.838 10.289,264.000 1.417 C 255.879 0.322,253.567 0.174,243.500 0.106 C 238.440 0.072,233.940 0.078,233.500 0.120 M128.400 130.051 C 128.015 130.166,126.236 130.696,124.447 131.229 C 110.496 135.381,92.911 144.706,84.725 152.294 L 84.150 152.827 84.257 160.464 C 85.370 239.911,145.579 306.211,224.500 314.896 C 230.348 315.539,231.910 315.627,239.436 315.738 L 247.171 315.852 247.710 315.276 C 255.596 306.850,265.269 288.222,269.379 273.551 C 270.342 270.114,270.342 270.114,269.750 270.277 C 255.853 274.096,235.628 274.542,219.702 271.381 C 155.808 258.698,114.760 195.480,129.309 132.164 C 129.579 130.990,129.800 129.977,129.800 129.914 C 129.800 129.750,129.210 129.808,128.400 130.051 " stroke="none" fill="#34d37c" fill-rule="evenodd"></path><path id="path1" d="M150.838 86.750 C 141.504 98.772,134.846 111.912,130.707 126.484 C 130.209 128.236,129.837 129.704,129.880 129.746 C 129.922 129.789,131.385 129.508,133.129 129.121 C 154.433 124.395,177.651 125.987,197.910 133.564 C 250.259 153.142,281.077 206.289,271.980 261.300 C 271.761 262.620,271.266 265.127,270.879 266.871 C 270.492 268.615,270.211 270.078,270.254 270.120 C 270.296 270.163,271.764 269.791,273.516 269.293 C 288.239 265.111,301.499 258.356,313.676 248.835 L 315.851 247.134 315.739 239.417 C 314.486 153.489,244.323 84.200,158.562 84.200 L 152.818 84.200 150.838 86.750 M93.300 97.871 C 36.000 123.727,0.101 179.283,0.101 242.100 C 0.101 286.260,17.531 326.961,49.226 356.812 C 123.501 426.763,242.977 409.610,294.477 321.600 C 297.153 317.028,303.400 304.524,303.400 303.742 C 303.400 303.687,301.938 304.226,300.150 304.939 C 284.704 311.099,266.517 315.017,250.053 315.730 L 247.005 315.862 245.357 317.781 C 201.739 368.565,123.716 371.349,76.183 323.817 C 28.890 276.523,31.389 198.824,81.607 155.187 L 84.138 152.987 84.270 149.943 C 84.992 133.289,89.177 114.106,95.341 99.200 C 96.351 96.757,96.406 96.600,96.245 96.604 C 96.165 96.606,94.840 97.176,93.300 97.871 " stroke="none" fill="#fbcc5c" fill-rule="evenodd"></path><path id="path2" d="M148.200 84.420 C 131.749 85.489,115.290 89.095,100.800 94.806 C 99.095 95.478,97.408 96.127,97.050 96.247 C 96.692 96.368,96.400 96.547,96.400 96.645 C 96.400 96.743,95.894 98.101,95.275 99.662 C 89.011 115.459,85.336 132.225,84.416 149.200 C 84.318 151.015,84.252 152.515,84.270 152.534 C 84.288 152.553,85.337 151.763,86.601 150.777 C 98.878 141.212,114.335 133.585,128.720 129.994 L 129.741 129.740 130.197 127.920 C 133.641 114.195,141.633 98.202,150.896 86.500 C 151.680 85.510,152.389 84.588,152.472 84.450 C 152.645 84.165,152.178 84.161,148.200 84.420 M314.568 248.267 C 302.643 257.943,286.646 266.054,272.089 269.805 L 270.278 270.271 269.510 273.086 C 265.372 288.238,258.749 301.082,247.726 315.336 L 247.352 315.820 248.326 315.717 C 248.862 315.660,250.470 315.561,251.900 315.498 C 266.521 314.850,284.726 310.881,299.213 305.182 C 300.911 304.515,302.574 303.876,302.909 303.763 C 303.581 303.537,303.582 303.535,305.832 297.600 C 310.221 286.028,313.346 273.166,314.775 260.800 C 315.352 255.810,315.958 247.400,315.740 247.400 C 315.683 247.400,315.156 247.790,314.568 248.267 " stroke="none" fill="#5ba43c" fill-rule="evenodd"></path><path id="path3" d="M84.246 151.000 C 84.246 151.385,84.288 151.542,84.338 151.350 C 84.388 151.157,84.388 150.843,84.338 150.650 C 84.288 150.458,84.246 150.615,84.246 151.000 M248.450 315.738 C 248.643 315.788,248.957 315.788,249.150 315.738 C 249.343 315.688,249.185 315.646,248.800 315.646 C 248.415 315.646,248.257 315.688,248.450 315.738 " stroke="none" fill="#8fbb54" fill-rule="evenodd"></path><path id="path4" d="M84.250 149.700 C 84.253 150.140,84.294 150.296,84.341 150.048 C 84.389 149.799,84.387 149.439,84.337 149.248 C 84.287 149.056,84.248 149.260,84.250 149.700 M249.750 315.741 C 249.998 315.789,250.403 315.789,250.650 315.741 C 250.898 315.693,250.695 315.654,250.200 315.654 C 249.705 315.654,249.503 315.693,249.750 315.741 " stroke="none" fill="#bec156" fill-rule="evenodd"></path></g></svg>